<mxfile host="app.diagrams.net" modified="2023-05-28T20:20:22.676Z" agent="Mozilla/5.0 (Windows NT 10.0; Win64; x64) AppleWebKit/537.36 (KHTML, like Gecko) Chrome/113.0.0.0 Safari/537.36" version="21.3.5" etag="DJPMoCgITqlv4PbcnG5t" type="github">
  <diagram name="Page-1" id="fr8hbnTxFqAePetziP6R">
    <mxGraphModel>
      <root>
        <mxCell id="0" />
        <mxCell id="1" parent="0" />
      </root>
    </mxGraphModel>
  </diagram>
</mxfile>
